<svg width="460" height="130" viewBox="0 0 460 130" fill="none" xmlns="http://www.w3.org/2000/svg">
<path d="M136.272 52.5475C138.615 54.8907 138.615 58.6897 136.272 61.0328L93.7009 103.604C91.3579 105.947 87.5589 105.947 85.2159 103.604L58.4254 76.814C56.0822 74.471 56.0822 70.6718 58.4254 68.3286L100.997 25.7574C103.34 23.4142 107.139 23.4142 109.482 25.7574L136.272 52.5475Z" fill="#4A6DFF"/>
<path d="M103.604 52.5475C105.947 54.8907 105.947 58.6897 103.604 61.0328L61.0328 103.604C58.6897 105.947 54.8907 105.947 52.5475 103.604L25.7574 76.814C23.4142 74.471 23.4142 70.6718 25.7574 68.3286L68.3287 25.7574C70.6718 23.4142 74.4709 23.4142 76.8139 25.7574L103.604 52.5475Z" fill="#2EB9FF"/>
<path d="M178.2 85.1806H163.607V44.0151H178.32C182.461 44.0151 186.026 44.8392 189.014 46.4875C192.002 48.1223 194.3 50.474 195.908 53.5427C197.53 56.6113 198.34 60.283 198.34 64.5577C198.34 68.8458 197.53 72.5308 195.908 75.6129C194.3 78.6949 191.989 81.0601 188.974 82.7083C185.972 84.3565 182.381 85.1806 178.2 85.1806ZM172.31 77.7234H177.838C180.411 77.7234 182.575 77.2678 184.33 76.3566C186.099 75.432 187.426 74.0048 188.31 72.0752C189.208 70.1322 189.657 67.6263 189.657 64.5577C189.657 61.5158 189.208 59.0301 188.31 57.1005C187.426 55.1708 186.106 53.7504 184.351 52.8392C182.595 51.928 180.431 51.4724 177.858 51.4724H172.31V77.7234ZM213.431 85.7635C211.461 85.7635 209.705 85.4218 208.164 84.7384C206.623 84.0416 205.404 83.0165 204.506 81.6631C203.622 80.2962 203.18 78.5944 203.18 76.5576C203.18 74.8424 203.494 73.4018 204.124 72.236C204.754 71.0702 205.612 70.1322 206.697 69.422C207.783 68.7118 209.015 68.1757 210.396 67.8139C211.789 67.4521 213.25 67.1975 214.777 67.0501C216.573 66.8625 218.02 66.6883 219.119 66.5275C220.218 66.3533 221.015 66.0987 221.511 65.7637C222.007 65.4287 222.255 64.9329 222.255 64.2763V64.1557C222.255 62.8827 221.853 61.8977 221.049 61.2009C220.258 60.5041 219.133 60.1557 217.672 60.1557C216.131 60.1557 214.905 60.4974 213.994 61.1808C213.082 61.8508 212.479 62.695 212.185 63.7135L204.265 63.0703C204.667 61.1942 205.458 59.5728 206.637 58.206C207.816 56.8257 209.337 55.7671 211.2 55.0301C213.076 54.2797 215.246 53.9045 217.712 53.9045C219.427 53.9045 221.069 54.1055 222.637 54.5075C224.218 54.9095 225.618 55.5326 226.838 56.3768C228.071 57.2211 229.042 58.3065 229.752 59.6331C230.462 60.9463 230.818 62.5208 230.818 64.3567V85.1806H222.697V80.8993H222.456C221.96 81.8641 221.297 82.715 220.466 83.452C219.635 84.1756 218.637 84.7451 217.471 85.1605C216.305 85.5625 214.958 85.7635 213.431 85.7635ZM215.883 79.854C217.143 79.854 218.255 79.6061 219.22 79.1103C220.184 78.6011 220.942 77.9177 221.491 77.0601C222.04 76.2025 222.315 75.231 222.315 74.1455V70.8692C222.047 71.0434 221.679 71.2042 221.21 71.3516C220.754 71.4856 220.238 71.6129 219.662 71.7335C219.086 71.8407 218.509 71.9412 217.933 72.035C217.357 72.1154 216.834 72.1891 216.365 72.2561C215.36 72.4035 214.483 72.638 213.732 72.9596C212.982 73.2812 212.399 73.7167 211.984 74.2661C211.568 74.8022 211.36 75.4722 211.36 76.2762C211.36 77.442 211.783 78.3331 212.627 78.9495C213.484 79.5525 214.57 79.854 215.883 79.854ZM253.883 54.3065V60.7386H235.29V54.3065H253.883ZM239.511 46.9096H248.074V75.6933C248.074 76.4839 248.194 77.1003 248.436 77.5425C248.677 77.9713 249.012 78.2728 249.441 78.447C249.883 78.6212 250.392 78.7083 250.968 78.7083C251.37 78.7083 251.772 78.6748 252.174 78.6078C252.576 78.5274 252.884 78.4671 253.099 78.4269L254.446 84.7987C254.017 84.9327 253.414 85.0868 252.636 85.261C251.859 85.4486 250.915 85.5625 249.802 85.6027C247.739 85.6831 245.93 85.4084 244.375 84.7786C242.834 84.1488 241.635 83.1706 240.777 81.844C239.92 80.5174 239.498 78.8423 239.511 76.8189V46.9096ZM268.264 85.7635C266.295 85.7635 264.539 85.4218 262.998 84.7384C261.457 84.0416 260.238 83.0165 259.34 81.6631C258.456 80.2962 258.013 78.5944 258.013 76.5576C258.013 74.8424 258.328 73.4018 258.958 72.236C259.588 71.0702 260.445 70.1322 261.531 69.422C262.616 68.7118 263.849 68.1757 265.229 67.8139C266.623 67.4521 268.084 67.1975 269.611 67.0501C271.407 66.8625 272.854 66.6883 273.953 66.5275C275.052 66.3533 275.849 66.0987 276.345 65.7637C276.841 65.4287 277.089 64.9329 277.089 64.2763V64.1557C277.089 62.8827 276.687 61.8977 275.883 61.2009C275.092 60.5041 273.966 60.1557 272.506 60.1557C270.965 60.1557 269.739 60.4974 268.827 61.1808C267.916 61.8508 267.313 62.695 267.018 63.7135L259.099 63.0703C259.501 61.1942 260.291 59.5728 261.471 58.206C262.65 56.8257 264.171 55.7671 266.033 55.0301C267.909 54.2797 270.08 53.9045 272.546 53.9045C274.261 53.9045 275.903 54.1055 277.47 54.5075C279.052 54.9095 280.452 55.5326 281.671 56.3768C282.904 57.2211 283.876 58.3065 284.586 59.6331C285.296 60.9463 285.651 62.5208 285.651 64.3567V85.1806H277.531V80.8993H277.29C276.794 81.8641 276.13 82.715 275.3 83.452C274.469 84.1756 273.47 84.7451 272.305 85.1605C271.139 85.5625 269.792 85.7635 268.264 85.7635ZM270.717 79.854C271.976 79.854 273.089 79.6061 274.053 79.1103C275.018 78.6011 275.775 77.9177 276.325 77.0601C276.874 76.2025 277.149 75.231 277.149 74.1455V70.8692C276.881 71.0434 276.512 71.2042 276.043 71.3516C275.588 71.4856 275.072 71.6129 274.496 71.7335C273.919 71.8407 273.343 71.9412 272.767 72.035C272.191 72.1154 271.668 72.1891 271.199 72.2561C270.194 72.4035 269.316 72.638 268.566 72.9596C267.816 73.2812 267.233 73.7167 266.817 74.2661C266.402 74.8022 266.194 75.4722 266.194 76.2762C266.194 77.442 266.616 78.3331 267.46 78.9495C268.318 79.5525 269.404 79.854 270.717 79.854ZM307.048 85.1806H292.455V44.0151H307.169C311.309 44.0151 314.874 44.8392 317.862 46.4875C320.85 48.1223 323.148 50.474 324.757 53.5427C326.378 56.6113 327.189 60.283 327.189 64.5577C327.189 68.8458 326.378 72.5308 324.757 75.6129C323.148 78.6949 320.837 81.0601 317.822 82.7083C314.82 84.3565 311.229 85.1806 307.048 85.1806ZM301.159 77.7234H306.686C309.259 77.7234 311.423 77.2678 313.179 76.3566C314.948 75.432 316.274 74.0048 317.159 72.0752C318.056 70.1322 318.505 67.6263 318.505 64.5577C318.505 61.5158 318.056 59.0301 317.159 57.1005C316.274 55.1708 314.954 53.7504 313.199 52.8392C311.443 51.928 309.279 51.4724 306.706 51.4724H301.159V77.7234ZM333.475 85.1806V54.3065H341.776V59.6934H342.098C342.661 57.7772 343.606 56.3299 344.932 55.3517C346.259 54.3601 347.786 53.8643 349.515 53.8643C349.944 53.8643 350.406 53.8911 350.902 53.9447C351.398 53.9983 351.833 54.072 352.209 54.1658V61.7637C351.807 61.6431 351.25 61.5359 350.54 61.4421C349.83 61.3483 349.18 61.3014 348.59 61.3014C347.331 61.3014 346.205 61.5761 345.214 62.1255C344.235 62.6615 343.458 63.412 342.882 64.3768C342.319 65.3416 342.038 66.4538 342.038 67.7134V85.1806H333.475ZM356.636 85.1806V54.3065H365.198V85.1806H356.636ZM360.937 50.3266C359.664 50.3266 358.572 49.9045 357.661 49.0603C356.763 48.2027 356.314 47.1776 356.314 45.985C356.314 44.8057 356.763 43.794 357.661 42.9498C358.572 42.0922 359.664 41.6634 360.937 41.6634C362.21 41.6634 363.296 42.0922 364.193 42.9498C365.105 43.794 365.56 44.8057 365.56 45.985C365.56 47.1776 365.105 48.2027 364.193 49.0603C363.296 49.9045 362.21 50.3266 360.937 50.3266ZM400.841 54.3065L390.047 85.1806H380.399L369.605 54.3065H378.651L385.063 76.3968H385.384L391.776 54.3065H400.841ZM418.298 85.7836C415.123 85.7836 412.389 85.1404 410.098 83.854C407.82 82.5542 406.064 80.7184 404.831 78.3465C403.598 75.9613 402.982 73.1405 402.982 69.8843C402.982 66.7084 403.598 63.9212 404.831 61.5225C406.064 59.1239 407.799 57.2546 410.037 55.9145C412.288 54.5745 414.928 53.9045 417.957 53.9045C419.994 53.9045 421.89 54.2328 423.645 54.8894C425.414 55.5326 426.955 56.5041 428.268 57.804C429.595 59.1038 430.627 60.7386 431.364 62.7084C432.101 64.6649 432.469 66.9563 432.469 69.5828V71.9345H406.399V66.628H424.409C424.409 65.3952 424.141 64.3031 423.605 63.3517C423.069 62.4002 422.325 61.6565 421.374 61.1205C420.436 60.5711 419.344 60.2964 418.097 60.2964C416.798 60.2964 415.645 60.5979 414.64 61.2009C413.649 61.7905 412.871 62.5878 412.309 63.5929C411.746 64.5845 411.458 65.69 411.444 66.9094V71.9546C411.444 73.4822 411.726 74.8022 412.288 75.9144C412.865 77.0266 413.675 77.8842 414.721 78.4872C415.766 79.0902 417.005 79.3917 418.439 79.3917C419.391 79.3917 420.262 79.2577 421.052 78.9897C421.843 78.7217 422.52 78.3197 423.082 77.7837C423.645 77.2477 424.074 76.5911 424.369 75.8139L432.288 76.3365C431.886 78.2393 431.062 79.9009 429.816 81.3214C428.583 82.7284 426.989 83.8272 425.032 84.6178C423.089 85.395 420.845 85.7836 418.298 85.7836Z" fill="black"/>
</svg>
